<?xml version="1.0" encoding="UTF-8"?>
<svg width="510px" height="519px" viewBox="0 0 510 519" version="1.1" xmlns="http://www.w3.org/2000/svg" xmlns:xlink="http://www.w3.org/1999/xlink">
    <!-- Generator: Sketch 49.3 (51167) - http://www.bohemiancoding.com/sketch -->
    <desc>Created with Sketch.</desc>
    <defs></defs>
    <g id="Page-1" stroke="none" stroke-width="1" fill="none" fill-rule="evenodd">
        <g id="OvOIllustrations">
            <g id="6" transform="translate(129.000000, 0.000000)">
                <path d="M109.8189,167.1595 C111.8033,167.1595 129.2875,149.7647 131.0833,147.9305 C151.2127,127.3708 150.1035,125.7609 150.079,125.7657 C109.8189,133.6922 83.7124,125.0929 81.9416,124.0304 C66.7456,131.2023 63.7046,131.299 63.4478,132.0696 C63.4478,132.0696 56.7053,135.1878 56.7053,135.1878 C56.5833,135.5539 70.9352,142.4936 82.959,150.4134 C96.7323,159.4856 109.8189,167.1595 109.8189,167.1595 Z" id="Fill-3" fill-opacity="0.5143" fill="#FFC793"></path>
                <path d="M81.0487,123.5639 C83.3892,118.6365 87.1241,109.9608 89.7091,105.1601 C91.1086,102.561 91.8227,99.5848 93.1319,96.9665 C94.1438,94.9428 94.8048,92.7523 95.6146,90.6469 C96.7747,87.6305 98.3667,84.7932 99.6771,81.8447 C100.6919,79.5614 103.6365,74.8096 104.1911,72.5911 C104.5373,71.2062 104.5514,67.1335 104.5346,65.6868 C104.3878,53.075 104.3878,51.2554 104.5346,45.7519 C104.5594,44.8207 103.9814,35.131 103.7692,34.9896 C102.9392,34.4362 93.5649,36.0643 92.4981,36.0791 C81.9294,36.2259 80.2725,37.3812 71.44,39.1477 C67.5493,39.9258 59.5699,39.5881 55.6957,40.2925 C48.2423,41.6112 42.4627,40.5472 42.1281,40.9933 C57.4812,61.9632 58.6869,63.7097 61.0857,69.84 C61.7985,71.6616 66.5629,79.5355 67.159,81.3985 C71.6642,95.4771 73.9127,98.9665 76.789,114.7331 C77.152,116.7226 78.6029,122.6118 80.0414,124.0503" id="Fill-4" fill-opacity="0.5143" fill="#34C7FF"></path>
                <path d="M81.0487,123.5639 C81.6506,122.5107 84.1629,117.0112 84.715,115.931 C87.1989,111.0712 88.3518,107.5533 90.8834,102.7202 C93.4045,97.9073 94.5961,93.8509 96.7431,88.8414 C97.0014,88.2386 102.3716,74.5764 102.6112,74.3967 C103.2225,73.9382 103.4787,74.0827 104.1911,74.171 C139.3129,78.5224 176.1519,69.3552 176.0197,69.84 C173.7687,78.0938 165.448,90.2379 162.8089,98.1555 C159.9371,106.7708 154.401,116.2008 151.5063,124.885 C151.2127,125.7657 132.8905,128.995 131.6117,128.995 C104.283,128.2787 101.5636,127.1687 98.4494,127.0815 C89.7091,126.8369 87.5883,124.4446 81.0487,123.5639" id="Fill-5" fill-opacity="0.5143" fill="#34C793"></path>
                <path d="M42.5686,40.9933 C45.7151,40.9933 54.0755,40.1496 56.6921,39.8418 C58.7147,39.6038 63.0391,39.2752 65.0804,39.1477 C95.3433,35.409 102.2156,35.6146 102.6112,35.3509 C102.6826,35.3032 102.9817,34.4651 103.0626,34.2224 C104.7693,29.1022 106.1502,25.8329 108.2537,20.9249 C113.766,4.8446 113.3432,2.465 113.0482,2.465 C110.4061,2.465 107.4535,2.0594 106.2224,1.9475 C103.7933,1.7267 90.6117,0.5568 90.0027,0.5568 C89.8559,0.5568 85.5675,3.7389 84.3297,4.8816 C81.191,7.7788 77.8297,10.4279 74.6246,13.2324 C65.6779,21.0608 51.5048,31.6755 42.1281,40.9933 L42.5686,40.9933 Z" id="Fill-6" fill-opacity="0.5143" fill="#34C793"></path>
                <path d="M156.7906,30.5012 C149.1006,31.6755 142.2582,32.4604 131.9888,33.3418 C116.6295,34.6602 103.7679,34.9569 103.7693,34.9896 C104.3878,49.4209 103.66,55.582 103.9474,57.7373 C104.1601,69.808 103.4858,74.1605 104.5346,74.2436 C122.0016,75.6274 124.8004,75.0212 128.7922,75.0212 C135.7612,75.0212 143.11,74.3393 150.0792,73.9501 C157.9649,73.5097 162.3054,71.944 166.4839,71.1843 C167.4864,71.002 175.9491,69.2416 176.0197,68.9593 C170.576,58.6665 167.1469,51.5009 165.6,47.6441 C161.073,36.3578 157.7367,33.2719 156.7906,30.5012" id="Fill-7" fill-opacity="0.5143" fill="#FFC793"></path>
                <path d="M0.3161,114.1177 C3.0649,108.3978 6.9332,101.4075 10.125,95.941 C32.6294,57.3977 40.8585,43.7294 42.5686,40.9933 C42.7106,40.766 42.4526,40.9933 42.5686,40.9933 C43.5737,40.9933 45.4908,45.6465 45.7269,46.4335 C61.3745,69.4203 65.3481,80.3216 68.9106,91.0089 C78.6326,119.8219 80.9442,122.4809 80.9442,123.3732 C80.9442,123.6111 80.8867,123.8821 80.7185,124.0503 C79.1675,125.6013 73.3272,127.425 71.2391,128.3386 C62.089,132.3417 58.6233,134.2138 47.6477,138.2342 C45.9887,138.8419 30.2618,144.4282 28.8078,144.1374 C27.8837,143.9526 22.6987,137.4983 22.0369,136.6894 C19.5713,133.6758 16.2204,130.7676 13.841,127.7083 C12.2924,125.7173 10.0675,123.2441 8.282,121.4585 C2.9339,116.5619 1.8687,115.1528 0.3161,114.1177" id="Fill-8" fill-opacity="0.5143" fill="#34C793"></path>
                <path d="M29.7107,145.3816 C57.7299,163.6074 59.6783,165.2076 60.4056,165.3531 C92.3513,164.4503 110.3684,167.4944 109.8189,167.1595 C87.5883,153.6124 56.6807,134.9235 55.8228,135.1907 C46.2257,138.0071 42.7844,139.6647 40.5442,140.5263 C38.9442,141.1417 30.7654,143.7978 29.7107,144.5889 C29.4177,144.8086 29.485,145.1996 29.485,145.4917" id="Fill-9" fill-opacity="0.5143" fill="#340093"></path>
                <path d="M112.888,3.9191 C111.9583,7.6331 111.0693,11.3807 109.757,14.9898 C107.9377,19.9926 105.608,25.4809 104.9485,30.757 C104.8345,31.6693 103.5262,33.9106 103.8303,34.6709 C103.9396,34.9441 108.4641,34.8945 109.086,34.8945 C116.4978,34.8945 123.9205,33.5117 131.3391,32.7699 C138.2274,32.081 145.1366,31.9425 152.0266,31.3161 C152.5089,31.2723 156.4996,30.8964 156.4996,30.757 C156.4996,30.7147 152.3512,26.6332 151.9148,26.284 C149.8524,24.6341 147.3973,23.5408 145.3171,21.9229 C138.8132,16.8643 131.2421,13.4635 124.2941,9.0631 C120.9394,6.9384 116.5283,4.5901 113.0482,2.465" id="Fill-10" fill-opacity="0.5143" fill="#FFC793"></path>
                <path d="M81.2185,124.5503 C85.92,125.5078 88.8922,126.5232 92.2641,126.9996 C103.9589,128.652 115.7171,129.495 127.6397,129.495 C132.3578,129.495 142.3404,127.5769 150.579,126.2657" id="Stroke-11" stroke="#FFFFFF" stroke-linecap="round" stroke-linejoin="round"></path>
                <path d="M43.0686,41.4933 C44.0084,43.5433 47.4925,48.3694 48.6684,50.2508 C53.9929,58.77 60.0424,66.4089 64.2279,75.4775 C68.7292,85.2304 72.2646,96.4576 75.3644,106.7905 C76.8571,111.7659 79.077,120.2673 81.2185,124.5503" id="Stroke-12" stroke="#FFFFFF" stroke-linecap="round" stroke-linejoin="round"></path>
                <path d="M81.2185,124.5503 C89.1658,111.0172 94.3796,94.5858 101.3649,80.6151 C102.3725,78.6 102.9182,76.3035 104.1539,74.4501" id="Stroke-13" stroke="#FFFFFF" stroke-linecap="round" stroke-linejoin="round"></path>
                <path d="M105.0345,74.7436 C117.7792,75.8338 130.5626,76.2439 143.3458,75.3308 C146.1513,75.1304 148.9101,74.5189 151.7127,74.3033 C155.0655,74.0454 158.7863,73.9025 161.9877,72.8354" id="Stroke-14" stroke="#FFFFFF" stroke-linecap="round" stroke-linejoin="round"></path>
                <path d="M161.9878,72.8354 C166.5605,72.2423 172.3386,71.3119 176.8132,70.1932" id="Stroke-15" stroke="#FFFFFF" stroke-linecap="round" stroke-linejoin="round"></path>
                <path d="M104.4474,74.0097 C104.665,60.6821 104.3303,48.4861 104.3303,35.1709" id="Stroke-16" stroke="#FFFFFF" stroke-linecap="round" stroke-linejoin="round"></path>
                <path d="M104.8878,35.258 C107.1916,35.1789 109.4855,34.9357 111.7868,34.8177 C135.1772,34.251 142.6061,32.8387 150.5792,32.3404 C152.2784,32.2342 155.2791,31.257 156.9996,31.257" id="Stroke-17" stroke="#FFFFFF" stroke-linecap="round" stroke-linejoin="round"></path>
                <path d="M104.3303,35.1709 C105.7858,30.7077 107.1259,26.0013 108.2712,21.9898 C110.7446,13.327 113.0677,6.3287 113.5482,2.965" id="Stroke-18" stroke="#FFFFFF" stroke-linecap="round" stroke-linejoin="round"></path>
                <path d="M30.2106,145.0889 C44.3818,140.078 54.9947,136.0281 68.4149,130.7827 C72.7033,129.1066 77.1292,126.2508 81.2802,125.0648" id="Stroke-19" stroke="#FFFFFF" stroke-linecap="round" stroke-linejoin="round"></path>
                <path d="M57.2053,135.6878 C65.0373,140.4551 73.4208,145.0889 81.2185,150.0309 C99.9273,161.8884 106.5763,165.5877 110.0484,167.3238" id="Stroke-20" stroke="#FFFFFF" stroke-linecap="round" stroke-linejoin="round"></path>
                <path d="M43.0686,41.4933 C52.0198,40.4059 59.6859,40.2374 68.4473,39.5635 C90.7211,36.4478 97.835,36.406 104.9249,35.5198" id="Stroke-21" stroke="#FFFFFF" stroke-linecap="round" stroke-linejoin="round"></path>
                <path d="M90.0027,0.5568 C88.197,0.8147 80.7023,8.0828 79.1405,9.5364 C73.2256,15.0416 66.6401,19.5562 59.0514,26.0972 C46.5539,36.8695 42.5379,40.9013 42.5686,40.9933 C42.7149,41.4324 47.7082,41.0334 48.008,40.9933 C97.4024,34.8642 99.8709,35.6934 102.6112,35.3509 C105.3515,35.0083 90.0027,0.5568 90.0027,0.5568 Z" id="Fill-22" fill-opacity="0.5143" fill="#34C7FF"></path>
                <path d="M117.4951,103.6903 C121.0978,104.6653 123.2972,105.5735 126.1091,107.3983 C136.466,114.1196 140.785,118.382 141.8404,119.0856 C143.2138,120.0012 149.7299,125.2714 151.2127,125.7657 C155.071,118.4575 156.9686,110.6772 159.0112,106.5921 C160.5296,103.5553 161.3394,100.1299 162.848,97.1127 C175.3764,71.8558 176.8105,70.6878 176.3132,69.6932 C173.0662,63.1992 169.6322,56.7039 166.5745,49.5018 C164.5239,44.6718 160.719,35.9738 156.7906,30.5012 C156.5674,30.1903 156.991,31.3245 156.5403,31.3245 C156.5031,31.3245 155.0999,35.0131 154.9486,35.4971 C152.7597,42.5014 148.6115,47.9411 145.0179,54.23 C141.9054,59.6768 138.1401,64.4755 134.8615,69.8032 C132.1258,74.2487 130.7739,78.8809 127.937,83.2652 C123.3179,90.4039 119.9105,96.8044 116.174,104.2775" id="Fill-23" fill-opacity="0.5143" fill="#34C7FF"></path>
                <path d="M110.5106,166.7073 C115.6663,162.4231 120.5307,157.7706 125.4067,153.1654 C133.6251,145.4036 141.8141,137.1702 148.8794,128.3386 C149.2735,127.846 151.716,126.2705 151.2127,125.7657 C147.7509,122.2933 136.2269,114.081 134.7773,113.0663 C132.1307,111.2136 126.5929,107.728 123.6012,106.4458 C122.6376,106.0329 118.0802,102.8023 117.4951,103.6903 C106.3915,120.5413 90.1495,146.2491 90.1495,147.9305" id="Fill-24" fill-opacity="0.5143" fill="#34C793"></path>
                <path d="M117.305,104.174 C110.7968,114.7331 106.6769,119.9325 90.1495,147.9305 C83.0585,148.8509 36.0411,144.114 29.0863,144.114 C28.564,144.114 28.315,143.0236 27.905,142.6136 C26.7909,141.4995 23.282,137.5053 21.2969,135.5202 C9.2065,122.4244 5.7385,120.7901 3.3261,117.5735 C2.3286,116.2435 -0.0418,114.1379 0.3161,114.1177 C6.7322,113.7558 11.0092,113.1933 13.3595,113.0663 C28.8079,112.231 40.7567,111.388 55.7856,110.4487 C62.0729,110.0557 71.0731,108.4919 79.4341,108.125 C86.2574,107.8255 90.2585,107.6369 97.1231,107.1466 C101.3842,106.8422 105.0021,105.9079 109.1786,105.3858 C111.2019,105.1329 113.7783,103.664 115.8161,103.664" id="Fill-25" fill-opacity="0.5143" fill="#34C7FF"></path>
                <path d="M28.8078,144.1374 C33.533,147.9305 39.9417,151.6635 44.8704,155.1136 C56.6058,163.2946 57.8605,164.9289 60.4056,165.3531 C62.6709,165.7306 73.6979,165.2533 76.2045,165.3531 C104.539,166.4816 111.0828,167.9362 110.7363,167.6101 C99.2257,156.7766 91.7089,148.0517 90.1495,147.9305 C46.7007,144.5544 33.1805,144.114 29.0863,144.114" id="Fill-26" fill-opacity="0.5143" fill="#340093"></path>
                <path d="M103.7693,34.9896 C123.1232,34.2224 138.5508,32.2753 140.7473,31.6755 C141.3717,31.505 157.08,29.9224 156.7906,30.5012 C155.3602,33.3621 154.6253,36.4816 153.3022,39.3922 C149.8196,47.0541 146.0501,52.7643 141.8404,60.061 C139.3453,64.3859 136.0371,69.1689 133.5617,73.5097 C129.8439,80.0293 126.7727,85.9926 122.4941,93.5345 C121.4114,95.443 116.4194,103.468 116.4243,103.4541 C116.4243,103.4541 114.8218,97.8007 114.7347,97.2329 C110.9045,72.2586 108.6707,65.911 108.1424,61.6841 C107.4604,56.2286 107.2505,50.7579 106.296,45.3488 C105.8231,42.6689 103.7693,35.1224 103.7693,34.9896" id="Fill-27" fill-opacity="0.5143" fill="#FFC793"></path>
                <path d="M42.5686,41.1977 C44.3273,40.7728 51.8458,40.6506 53.6046,40.2285 C74.6288,37.3289 85.014,36.482 94.6771,35.3452 C95.6048,35.236 103.1857,34.5032 103.7693,34.9896 C105.3619,43.4911 106.1153,44.7678 106.334,46.1783 C113.0482,89.4861 115.7475,102.6346 115.6904,102.7202 C115.3725,103.1969 116.9367,103.1979 116.4243,103.4541 C110.1534,106.5896 103.6539,105.1898 94.372,106.2141 C87.1909,107.0066 79.9208,108.4499 72.705,109.1482 C66.6043,109.7386 60.527,109.3648 54.4234,109.5996 C51.4059,109.7156 48.3921,110.407 45.3955,110.7281 C41.6296,111.1316 37.877,110.7744 34.1105,110.9538 C30.0101,111.149 26.1469,111.9597 22.1485,112.7594 C19.9386,113.2013 0.3161,114.1177 0.3161,114.1177 C1.6539,109.5979 7.7051,100.5597 10.125,95.941 C14.733,87.1459 16.2602,84.6382 21.049,77.113 C24.9106,71.0447 29.9676,63.2824 33.533,57.043 C36.7053,51.4915 39.1948,46.3914 42.5686,40.9933" id="Fill-28" fill-opacity="0.5143" fill="#34C793"></path>
                <path d="M103.7693,34.9896 C110.3849,34.2664 117.1098,34.3811 123.7124,33.6861 C126.3215,33.4114 128.9141,33.0495 131.5332,32.904 C144.7541,31.3819 148.5245,31.3504 153.619,30.7843 C154.319,30.7065 156.5248,31.1657 156.7906,30.5012 C142.6668,19.3601 138.1093,16.2411 133.2278,13.6126 C114.8215,2.9051 114.4336,3.0191 113.0482,2.465 C98.9691,1.9499 92.4981,0.5568 90.7367,0.5568 C90.4507,0.5568 90.8215,0.4794 90.8834,0.5568 C91.9146,1.8457 91.6217,4.6911 92.2987,6.1828 C94.1591,10.2821 94.8436,13.8737 96.3395,17.6534 C101.3876,30.4092 102.1988,32.7673 104.6817,35.2503" id="Fill-29" fill-opacity="0.5143" fill="#FFC793"></path>
                <path d="M103.5626,34.7224 C98.9494,23.8675 94.5644,11.7678 91.2367,1.0568" id="Stroke-30" stroke="#FFFFFF" stroke-linecap="round" stroke-linejoin="round"></path>
                <path d="M104.2693,35.4896 C106.509,45.5888 108.287,57.0206 109.585,67.4043 C114.4772,98.6357 116.3607,101.6997 116.9243,103.9541" id="Stroke-31" stroke="#FFFFFF" stroke-linecap="round" stroke-linejoin="round"></path>
                <path d="M117.805,103.367 C124.1789,92.7288 130.1696,80.1661 136.5937,69.4593 C140.8822,62.3118 145.9202,55.7971 149.6577,48.3221 C151.8766,43.8843 153.8797,39.4377 156.1163,34.9645 C156.8163,33.5645 157.1417,32.032 158.0245,30.7077" id="Stroke-32" stroke="#FFFFFF" stroke-linecap="round" stroke-linejoin="round"></path>
                <path d="M104.2692,35.4896 C118.2454,34.7429 132.5153,33.7018 145.2541,31.8819 C149.1855,31.3203 153.4427,31.9632 157.2906,31.0012" id="Stroke-33" stroke="#FFFFFF" stroke-linecap="round" stroke-linejoin="round"></path>
                <path d="M118.2454,103.367 C128.841,109.81 132.1087,111.1898 135.2773,113.5663 C141.099,117.9325 145.6695,122.2369 151.7127,126.2657" id="Stroke-34" stroke="#FFFFFF" stroke-linecap="round" stroke-linejoin="round"></path>
                <path d="M90.6495,148.4305 C97.5257,138.1105 102.2546,126.5473 109.7317,116.5778 C112.9308,112.3124 116.7321,108.7318 117.805,103.367" id="Stroke-35" stroke="#FFFFFF" stroke-linecap="round" stroke-linejoin="round"></path>
                <path d="M0.8161,114.6177 C3.0848,113.8441 6.4115,114.5874 8.7328,114.2558 C20.66,112.7162 27.229,113.2868 33.9899,112.321 C39.9273,111.4728 46.0527,111.646 52.0446,111.1467 C63.6987,110.1755 75.3985,109.365 86.9798,107.9174 C93.8919,107.0534 104.6079,107.3257 111.1996,105.1284 C112.9146,104.5568 115.4358,104.9465 116.9243,103.9541" id="Stroke-36" stroke="#FFFFFF" stroke-linecap="round" stroke-linejoin="round"></path>
                <path d="M29.3079,144.6374 C43.1656,145.5328 57.4418,145.4116 71.2737,146.669 C85.215,148.4305 88.2256,148.4305 90.6495,148.4305" id="Stroke-37" stroke="#FFFFFF" stroke-linecap="round" stroke-linejoin="round"></path>
                <path d="M43.0686,41.4933 C51.6191,40.2489 63.5593,39.6238 71.4964,38.6699 C88.8922,36.5791 96.4713,36.1985 104.2693,35.4896" id="Stroke-38" stroke="#FFFFFF" stroke-linecap="round" stroke-linejoin="round"></path>
                <path d="M90.6495,148.4305 C93.8242,151.0726 98.0325,155.1815 100.6856,157.4686 C109.6911,165.9802 108.7827,166.244 110.9061,167.6595" id="Stroke-39" stroke="#FFFFFF" stroke-linecap="round" stroke-linejoin="round"></path>
            </g>
            <g id="5" transform="translate(316.000000, 225.000000)">
                <path d="M0.5408,29.1169 C2.9214,26 5.3828,22.9552 7.7598,19.8353 C11.0442,15.5245 15.0446,11.7724 18.2789,7.4599 C18.4021,7.2956 19.8424,5.3974 20.1352,5.3974 C21.1525,5.3974 23.0901,8.7454 23.6416,9.4194 C24.7403,10.7623 26.2159,11.8186 27.3542,13.132 C30.2229,16.442 32.5186,20.3233 35.0888,23.8574 C35.5553,24.4988 37.3857,26.1356 37.2545,27.0543 C37.0148,28.7319 27.7499,35.9379 26.2198,37.264 C25.2936,38.0667 14.5883,47.9178 14.4631,47.9894 C14.2465,48.1132 11.3403,45.0199 10.9568,44.483 C7.3953,39.4969 3.6047,34.5892 0.2314,29.5294" id="Fill-40" fill-opacity="0.5143" fill="#34C793"></path>
                <path d="M39.0077,26.6418 C40.1512,26.2234 41.378,26.0475 42.5141,25.6106 C45.8215,24.3385 49.336,23.4397 52.7238,22.3105 C53.1596,22.1652 58.8005,20.3274 58.8084,20.351 C58.8778,20.5594 52.9089,29.7853 52.3113,30.4576 C50.5328,32.4584 49.0354,34.6458 47.258,36.6453 C45.3368,38.8066 42.9861,40.5746 41.0703,42.7299 C40.134,43.7832 38.6948,46.3411 37.4608,46.9581 C34.7542,48.3114 19.0243,47.8863 14.6695,47.8863" id="Fill-41" fill-opacity="0.5143" fill="#34C7FF"></path>
                <path d="M37.7701,27.8794 C43.2935,26.0987 48.8949,24.1514 54.2707,22.0011 C54.7617,21.8047 57.2607,21.489 57.3645,20.9698 C57.8967,18.3088 51.8109,10.7979 50.4549,8.5944 C49.9944,7.846 46.033,0.864 45.711,0.7566 C42.5907,-0.2835 34.7465,2.8052 31.5824,3.438 C30.3833,3.6778 20.239,4.9325 19.6195,5.7068 C18.8708,6.6427 24.8995,11.807 25.601,12.6164 C28.7977,16.3049 35.0939,27.3668 38.1826,29.2201" id="Fill-42" fill-opacity="0.5143" fill="#FFC793"></path>
                <path d="M15.503,47.7119 C22.6198,41.0223 30.7254,35.3254 37.6391,28.4118" id="Stroke-43" stroke="#FFFFFF" stroke-linecap="round" stroke-linejoin="round"></path>
                <path d="M38.5844,28.0967 C44.8038,25.6184 51.0817,23.3532 57.4119,21.2432" id="Stroke-44" stroke="#FFFFFF" stroke-linecap="round" stroke-linejoin="round"></path>
                <path d="M37.7966,28.0179 C33.0109,20.1921 25.1768,14.5211 20.4659,6.6696" id="Stroke-45" stroke="#FFFFFF" stroke-linecap="round" stroke-linejoin="round"></path>
                <path d="M1.0565,30.767 C1.7009,31.7981 1.3428,31.3627 2.0878,32.1076 C3.1002,33.12 3.8946,34.869 4.7621,36.0257 C6.137,37.8589 12.5597,46.5618 14.0506,47.68 C14.948,48.353 26.6367,48.149 28.6313,47.9496 C34.4618,48.0287 37.2838,47.5476 37.4608,47.3706 C38.1776,46.6538 31.5071,39.1482 30.7574,38.3984 C30.0547,37.6958 26.3464,32.4725 26.0135,32.417 C25.8013,32.3816 18.1396,31.9043 16.0271,31.693 C13.2954,31.4199 2.8251,29.6501 0.8502,30.0451" id="Fill-46" fill-opacity="0.5143" fill="#340093"></path>
                <path d="M1.8815,30.5607 C6.0394,30.3848 19.9678,32.6741 26.0135,32.417 C27.0789,32.3717 27.2812,30.4012 27.973,29.6326 C30.8254,26.4632 32.0484,22.9379 33.7481,19.1135 C35.0396,16.2076 37.097,13.4108 39.0077,10.8632 C39.485,10.2268 45.734,0.9057 45.711,0.8598 C45.4689,0.3756 43.5401,1.3347 43.1328,1.3754 C39.7196,1.7167 36.2383,2.8633 32.9231,3.7474 C30.2322,4.4649 27.0358,5.3513 24.2603,5.6037 C23.4457,5.6777 20.6947,5.3681 20.0321,5.8099 C19.0211,6.4839 18.1805,8.0486 17.2476,8.9038 C10.2601,15.309 6.0758,22.2067 0.8502,30.0451" id="Fill-47" fill-opacity="0.5143" fill="#34C793"></path>
                <path d="M45.711,0.8598 C48.7626,3.9921 51.1066,9.5719 53.5488,13.2351 C54.2718,14.3197 54.5571,15.6988 55.302,16.7415 C55.8405,17.4955 58.4989,20.2041 58.4989,21.176 C58.4989,21.6901 57.8126,22.3908 57.5708,22.8261 C54.3016,28.7107 50.0676,33.4231 45.2985,38.1922 C44.7911,38.6996 37.225,46.8255 37.0483,46.855 C34.755,44.1273 32.7202,40.5029 32.1762,40.1221 C31.3592,39.5502 25.8491,32.9926 26.0135,32.417 C26.1929,31.7893 26.1023,31.9522 26.426,31.3857 C28.5856,27.6065 30.0418,23.4497 32.4075,19.7322 C35.3293,15.1408 38.6935,10.8503 41.5859,6.2224 C41.8788,5.7538 45.2509,0.6757 45.711,0.8598" id="Fill-48" fill-opacity="0.5143" fill="#34C7FF"></path>
                <path d="M26.6892,32.3506 C32.3363,21.3824 39.5305,10.9617 46.3832,0.6826" id="Stroke-50" stroke="#FFFFFF" stroke-linecap="round" stroke-linejoin="round"></path>
                <path d="M27.0831,33.3747 C30.2273,36.7007 32.3628,40.7502 35.2758,44.2458 C36.1278,45.2681 37.2556,46.0749 37.9542,47.2393" id="Stroke-51" stroke="#FFFFFF" stroke-linecap="round" stroke-linejoin="round"></path>
                <path d="M25.9802,32.902 C17.8599,32.8603 8.5653,30.5387 0.6143,30.5387" id="Stroke-52" stroke="#FFFFFF" stroke-linecap="round" stroke-linejoin="round"></path>
            </g>
            <g id="4" transform="translate(81.000000, 303.000000)">
                <path d="M31.6223,16.5875 C34.7655,15.8701 38.02,15.8842 41.2205,15.6842 C43.7392,15.5268 46.269,15.4003 48.7861,15.2325 C49.7965,15.1651 58.7117,14.6312 59.5134,15.2325 C59.8651,15.4962 58.7342,18.657 58.4972,19.0718 C57.2939,21.1775 53.1013,32.9366 53.077,32.9609 C51.9687,34.0692 38.0016,38.9647 35.6874,39.736 C34.669,40.0755 28.2182,43.1815 27.5572,42.7849 C26.8069,42.3347 27.5829,38.74 27.6701,38.0423 C28.0332,35.1374 27.8713,32.1421 28.2347,29.2345 C28.7091,25.4393 29.8156,19.9544 29.8156,16.2488" id="Fill-53" fill-opacity="0.5143" fill="#34C7FF"></path>
                <path d="M28.3477,41.317 C28.5969,34.347 29.9285,27.5128 29.9285,20.5398 C29.9285,19.6621 30.68,17.526 30.2673,16.7005 C29.0958,14.3576 24.8852,10.3837 23.0404,8.2315 C22.33,7.4026 17.1781,1.7214 16.9428,1.6822 C16.3621,1.5854 15.6528,4.3159 15.4748,4.731 C14.3014,7.469 13.7533,10.5805 12.5389,13.3129 C12.0449,14.4245 11.3204,15.4787 10.8451,16.5876 C9.673,19.3226 8.1171,21.9634 6.8929,24.7178 C5.2943,28.3147 4.5056,32.3573 2.602,35.7839 C2.3872,36.1705 1.1372,38.1616 1.3599,38.6069 C1.5961,39.0793 5.7402,38.828 6.3283,38.9456 C8.0729,39.2945 9.9877,39.1458 11.7485,39.3973 C17.134,40.1667 22.5136,41.9945 27.896,41.9945" id="Fill-54" fill-opacity="0.5143" fill="#34C793"></path>
                <path d="M17.3945,2.021 C18.0958,3.4237 17.2764,2.0158 18.9753,3.7147 C20.0446,4.7841 20.6601,6.6136 21.4596,7.8928 C22.5921,9.7049 27.8722,13.5743 28.7993,15.1196 C29.0966,15.615 29.029,16.2526 29.4769,16.7005 C29.8366,17.0603 32.0433,16.5876 32.5257,16.5876 C38.8872,16.5876 45.1596,15.2325 51.4962,15.2325 C52.1551,15.2325 58.8893,15.5775 58.9489,15.4584 C58.9534,15.4493 56.0903,13.7553 55.7871,13.5387 C54.0421,12.2923 52.4942,10.5882 50.8186,9.2478 C49.242,7.9865 46.4389,4.289 44.721,3.6018 C40.3971,1.8723 21.8088,1.4564 16.1524,1.4564" id="Fill-55" fill-opacity="0.5143" fill="#FFC793"></path>
                <path d="M2.1504,39.736 C5.6649,45.6002 9.0368,51.7599 13.3294,57.1257 C16.2078,60.7237 19.5068,63.9371 22.0242,67.853 C23.1713,69.6374 26.5636,76.2317 27.6702,77.3383 C29.0582,78.7263 38.3368,82.5022 40.6559,83.6617 C42.2653,84.4665 50.7488,88.856 52.0608,88.856 C52.249,88.856 51.7881,88.5806 51.722,88.4044 C51.4087,87.5688 50.989,86.8254 50.5928,86.0331 C49.3623,83.5719 48.1627,81.0783 46.9794,78.5804 C45.7248,75.9316 44.169,73.4188 42.6885,70.9018 C41.4194,68.7444 40.6297,66.3152 39.4138,64.1267 C38.1225,61.8023 36.9351,59.4084 35.8004,57.0127 C34.6002,54.479 32.7846,52.23 31.6223,49.673 C30.9281,48.1456 29.8757,44.2 28.7993,43.1236 C26.3754,40.6997 14.3827,40.9154 11.071,40.6394 C8.0152,40.3847 4.9595,39.3973 1.9245,39.3973" id="Fill-56" fill-opacity="0.5143" fill="#34C7FF"></path>
                <path d="M52.7383,88.2915 C59.6641,86.1883 66.4615,83.9573 73.5155,82.1938 C74.4263,81.9661 78.3038,81.1534 78.5969,80.2742 C78.8988,79.3684 75.7683,75.8591 75.3222,74.967 C73.4166,71.1558 72.1965,66.95 70.5796,62.9975 C67.8053,56.2161 63.4916,50.999 60.078,44.9304 C59.3421,43.622 53.8192,34.0539 52.9641,33.4126 C52.4955,33.0611 51.0219,33.8163 50.5928,33.9772 C45.7477,35.7941 40.8458,37.3054 36.1391,39.3973 C33.7585,40.4554 30.491,40.9044 28.3477,42.3332 C28.0693,42.5188 28.3775,42.8654 28.4606,43.0107 C29.0804,44.0954 30.1256,44.9713 30.6061,46.1725 C31.366,48.0723 31.8425,50.143 32.8644,51.9314 C34.4938,54.7828 39.1945,61.6821 40.0913,64.0138 C41.3263,67.2247 42.5103,70.8843 44.0435,73.9507 C45.5936,77.0509 47.1253,80.1143 48.6732,83.2101 C49.5972,85.0582 51.0805,86.6312 51.8349,88.5173" id="Fill-57" fill-opacity="0.5143" fill="#340093"></path>
                <path d="M79.2744,79.2579 C84.0733,75.3689 88.5111,71.0744 93.2764,67.1755 C93.9526,66.6222 96.664,65.1545 96.664,64.2396 C96.664,62.6903 93.1909,57.2092 92.2601,55.7707 C87.6556,48.6546 82.1409,42.0424 76.4514,35.7839 C72.1422,31.0438 68.2827,25.7707 64.1431,20.8785 C63.5651,20.1953 60.7018,16.0015 60.191,15.7971 C59.6332,15.574 57.0336,22.7037 56.6905,23.4757 C56.3019,24.35 52.5352,32.8667 52.9641,33.4126 C54.2062,34.9935 56.3791,38.6515 58.1584,41.5428 C62.023,47.8227 65.6797,54.1011 68.9987,60.7391 C70.2157,63.1732 71.9728,65.5359 72.9509,68.0789 C74.4863,72.0709 75.2953,76.4367 77.9193,79.9354" id="Fill-58" fill-opacity="0.5143" fill="#34C7FF"></path>
                <path d="M52.1514,89.1095 C50.224,85.7466 48.6949,82.5422 47.2991,79.7506 C46.7345,78.6213 46.5921,77.2285 45.9667,76.1339 C42.8199,70.6271 40.0449,64.9567 37.2106,59.2879 C35.6156,56.0981 33.7128,53.5415 32.3566,50.1511 C31.3691,47.6822 28.8778,45.3727 28.2641,42.9178" id="Stroke-59" stroke="#FFFFFF" stroke-linecap="round" stroke-linejoin="round"></path>
                <path d="M79.4945,80.4354 C76.5197,76.8302 75.1884,72.2279 73.4033,68.0627 C72.5354,66.0376 71.3854,63.824 70.3577,61.8763 C67.2477,55.9825 66.5193,53.7188 65.3134,52.1684 C64.1962,50.732 62.2526,47.9841 61.385,46.2489 C59.2912,42.0612 55.6493,37.6054 53.577,33.4609" id="Stroke-60" stroke="#FFFFFF" stroke-linecap="round" stroke-linejoin="round"></path>
                <path d="M53.2951,32.6389 C56.6114,27.4454 56.1232,20.5925 59.5767,15.4122" id="Stroke-61" stroke="#FFFFFF" stroke-linecap="round" stroke-linejoin="round"></path>
                <path d="M28.5496,42.2516 C33.1727,41.8013 37.8969,38.7234 42.1597,37.3025 C46.0663,36.0003 50.077,34.6459 53.5807,32.5437" id="Stroke-62" stroke="#FFFFFF" stroke-linecap="round" stroke-linejoin="round"></path>
                <path d="M31.2145,16.5543 C40.4191,16.5805 49.466,15.0315 58.625,15.0315" id="Stroke-63" stroke="#FFFFFF" stroke-linecap="round" stroke-linejoin="round"></path>
                <path d="M28.2641,41.8708 C28.3188,40.6698 28.1629,39.4323 28.3593,38.2542 C28.6751,36.3591 29.2293,34.3935 29.6917,32.5437 C29.9981,31.3181 30.5483,18.5437 30.5483,16.7446" id="Stroke-65" stroke="#FFFFFF" stroke-linecap="round" stroke-linejoin="round"></path>
                <path d="M2.2813,38.9204 C3.9174,39.7311 5.8106,39.0652 7.5159,39.4915 C15.0743,41.3811 22.6394,39.7607 29.0255,41.5854" id="Stroke-66" stroke="#FFFFFF" stroke-linecap="round" stroke-linejoin="round"></path>
                <path d="M18.5562,2.4684 C22.1243,7.6699 27.2994,11.5858 30.7386,16.7446" id="Stroke-67" stroke="#FFFFFF" stroke-linecap="round" stroke-linejoin="round"></path>
                <path d="M52.5124,88.4044 C56.7245,86.7378 66.6274,77.677 66.6274,77.677 C86.3679,70.0728 95.6477,65.4355 95.6477,65.3688 C95.6477,65.0965 93.7446,66.8419 93.6152,66.9497 C92.0889,68.2216 88.5158,70.979 87.0658,72.3698 C81.8202,78.2237 79.4578,79.9145 78.5969,80.2742 C74.2726,82.0809 66.7477,84.5651 61.3202,85.8072 C59.5516,86.2119 53.0911,88.1786 51.2703,88.1786" id="Fill-68" fill-opacity="0.5143" fill="#340093"></path>
                <path d="M66.6274,77.677 C72.6121,75.0799 84.4687,72.144 89.4371,68.7564 C89.8471,68.4769 96.253,64.9217 96.0994,64.6913 C95.783,64.2167 90.4534,61.8683 90.4534,61.8683 C90.4534,61.8683 80.6294,56.7869 80.6294,56.7869 C80.6294,56.7869 65.1148,55.0477 58.8359,54.5245 C57.5691,54.4189 46.6878,53.6908 45.6243,54.7543 C44.9932,55.3854 50.6011,61.7019 51.1574,62.32 C66.7348,77.404 63.5137,75.6012 66.6274,77.677" id="Fill-69" fill-opacity="0.5143" fill="#34C7FF"></path>
                <path d="M51.8349,88.5173 C52.9016,87.9237 62.4258,81.3377 63.1269,79.9354 C63.7869,78.6155 67.4525,78.5021 66.6274,77.677 C60.6451,71.6947 57.5074,69.6906 52.0608,63.3362 C50.2323,61.203 48.9163,59.0243 47.3182,56.7869 C47.1736,56.5845 46.7473,54.4187 46.5277,54.5285 C45.4869,55.0489 42.6406,59.016 41.7851,60.0616 C39.9619,62.2899 38.0555,64.4695 36.252,66.7238 C34.5368,68.8679 33.2382,71.3142 31.3965,73.3861 C31.1095,73.7089 27.67,77.3943 27.7831,77.677 C28.066,78.3844 30.669,78.4826 31.3965,78.9191 C34.1808,80.5897 37.24,82.7696 40.3171,84.0005 C42.3665,84.8202 44.929,85.5213 46.8665,86.5977 C48.1447,87.3078 50.707,88.066 51.722,88.4044" id="Fill-70" fill-opacity="0.5143" fill="#34C793"></path>
                <path d="M59.9651,15.7971 C47.9117,5.6974 43.96,3.9259 43.7047,4.0535 C50.2503,13.2624 53.4649,18.9061 56.6905,23.4757 C62.441,31.6223 69.6393,38.5998 74.3059,47.4146 C75.72,50.0857 80.6294,56.7869 80.6294,56.7869 C80.6294,56.7869 90.7965,62.0399 93.3893,63.3363 C93.8113,63.5473 95.9668,64.999 96.2123,64.9171 C97.314,64.5499 94.8337,60.6473 94.5185,60.1745 C91.3832,55.4716 87.0517,47.1746 83.3395,43.4624 C81.3249,41.4478 79.811,38.9282 77.9193,36.8002 C75.6665,34.2657 73.2853,32.0518 71.2571,29.3475 C67.6469,24.5339 64.218,20.05 59.9651,15.7971" id="Fill-71" fill-opacity="0.5143" fill="#34C793"></path>
                <path d="M1.5528,38.6005 C6.6856,29.0883 7.9635,16.2335 13.9249,7.2914 C14.2496,6.8043 16.6228,1.0188 16.7023,0.9791 C17.3964,0.632 17.9022,2.0374 18.2173,2.7465 C20.2586,7.3393 22.7761,11.9868 25.2871,16.3811 C26.748,18.9378 28.842,21.2934 30.0845,23.9559 C32.8469,29.8754 36.057,35.7618 39.4267,41.3779 C40.2373,42.7289 47.254,53.3441 47.254,54.0026 C47.254,56.2466 38.3483,66.1907 36.3968,68.1422 C33.9856,70.5534 30.5496,76.7668 28.822,78.4944 C27.9739,79.3425 25.4028,73.2394 25.0346,72.6871 C24.8242,72.3714 24.0527,71.7753 23.7721,71.4246 C22.227,69.4932 20.5046,66.897 18.9748,65.1123 C17.2767,63.1311 15.076,62.0779 12.915,59.0524 C10.9752,56.3368 9.7058,53.2287 7.8651,50.4677 C7.733,50.2696 7.5284,50.131 7.3601,49.9627 C7.0235,49.5419 6.6358,49.1572 6.3501,48.7002 C4.8209,46.2535 3.8054,43.4556 2.0578,41.1255 C1.3834,40.2263 1.2985,38.8494 0.7953,37.843" id="Fill-72" fill-opacity="0.5143" fill="#34C793"></path>
                <path d="M47.254,54.0026 C51.7528,54.7131 57.058,54.1193 61.546,54.8673 C65.1233,55.4635 70.7718,55.2023 74.8705,55.6577 C76.766,55.8683 78.4825,56.6511 80.2906,57.0127 C80.7366,57.1019 81.4224,58.0186 81.5328,57.5773 C81.5661,57.4439 77.5015,49.8665 77.1289,49.3342 C75.9075,47.5894 74.3156,46.0425 73.1767,44.2528 C70.6157,40.2285 67.927,35.8416 64.8207,32.1705 C62.6018,29.5481 60.3493,26.9916 58.3842,24.1532 C55.3541,19.7762 48.6661,6.6238 44.3822,4.0535 C43.7419,3.6693 38.34,3.2263 37.2683,3.0372 C31.831,2.0777 26.2897,1.5693 20.782,1.5693 C19.8636,1.5693 18.8543,1.6354 17.9591,1.4563 C17.8345,1.4314 17.1385,0.8805 17.0557,1.0047 C16.9329,1.1888 17.4464,2.0972 17.5074,2.2468 C18.7495,5.2956 18.9621,5.9879 20.5562,8.5539 C22.25,11.2803 24.8533,15.7698 26.0893,17.8297 C27.2694,19.7966 28.6397,22.7759 29.9285,25.1694 C30.9916,27.1438 31.6165,28.6438 32.7515,30.5896 C35.5525,35.3913 43.799,52.333 47.7698,54.9802" id="Fill-73" fill-opacity="0.5143" fill="#FFC793"></path>
                <path d="M67.6321,78.0404 C77.1798,73.7451 87.7875,71.0204 96.508,65.2067" id="Stroke-74" stroke="#FFFFFF" stroke-linecap="round" stroke-linejoin="round"></path>
                <path d="M66.9102,78.3613 C62.7391,83.0566 57.396,85.9627 52.1514,89.1095" id="Stroke-75" stroke="#FFFFFF" stroke-linecap="round" stroke-linejoin="round"></path>
                <path d="M46.7773,55.9825 C41.2213,63.0409 32.0824,70.5332 28.0881,78.5217" id="Stroke-76" stroke="#FFFFFF" stroke-linecap="round" stroke-linejoin="round"></path>
                <path d="M47.3387,56.2231 C51.9524,62.2835 57.0985,68.1377 63.0601,72.907 C64.5893,74.1304 65.6158,76.0242 66.9904,77.3988" id="Stroke-77" stroke="#FFFFFF" stroke-linecap="round" stroke-linejoin="round"></path>
                <path d="M47.7398,55.1804 C56.0218,54.8705 64.3544,55.3751 72.6052,56.0627 C73.6667,56.1511 79.6421,55.9462 80.2252,56.3835 C80.5658,56.6389 95.0945,63.5696 96.6684,64.2442" id="Stroke-78" stroke="#FFFFFF" stroke-linecap="round" stroke-linejoin="round"></path>
                <path d="M18.0618,2.3214 C25.5946,15.9186 32.4069,29.9998 40.4406,43.3893 C42.7112,47.1736 45.5404,51.0686 46.9377,55.2606" id="Stroke-79" stroke="#FFFFFF" stroke-linecap="round" stroke-linejoin="round"></path>
                <path d="M44.2047,4.0104 C46.0605,6.2103 47.6183,8.6153 49.3382,10.9085 C52.6889,15.3761 56.0953,21.2723 59.525,25.9881 C61.4618,28.6512 63.7219,31.1118 65.8616,33.6082 C70.5271,39.0512 77.8831,50.7942 81.1294,57.2869" id="Stroke-80" stroke="#FFFFFF" stroke-linecap="round" stroke-linejoin="round"></path>
            </g>
            <g id="3" transform="translate(247.000000, 426.000000)">
                <path d="M22.0645,89.9615 C14.1465,85.3681 8.2318,78.3617 3.161,70.7555 C2.5312,69.8108 0.0083,64.9626 0.4389,64.1015 C1.3004,62.3784 10.4142,58.5124 11.9039,57.5161 C23.2489,49.9287 23.4499,50.2608 32.332,44.1117 C39.7435,38.9806 44.434,35.5561 53.1696,28.1748 C56.1173,25.6841 60.6832,22.8148 63.4572,20.5191 C64.4868,19.6669 65.7886,18.612 66.4041,18.1402 C73.0772,21.7462 84.3901,26.0396 85.9675,27.4781 C85.1119,28.383 80.933,32.7294 79.9849,34.3095 C79.3674,35.3387 78.3718,36.215 77.5653,37.1829 C75.4436,39.7288 73.7179,42.5425 71.3649,44.8955 C67.6257,48.6347 63.2961,51.9399 59.8716,55.9352 C55.5395,60.9893 52.3161,64.6783 47.6,69.3945 C44.3219,72.6725 39.8553,75.6598 36.8849,79.2243 C33.7737,82.9578 27.8922,88.0423 23.8793,90.7176" id="Fill-83" fill-opacity="0.5143" fill="#34C793"></path>
                <path d="M88.8468,11.1394 C91.6532,11.0967 94.6172,11.4366 97.4071,11.0381 C101.129,10.5064 104.8697,9.9849 108.6014,9.5185 C108.9325,9.4771 113.1739,9.5598 113.0588,9.2146 C112.7669,8.3388 108.8183,6.3254 107.9429,5.6689 C107.224,5.1297 103.4175,2.1062 102.8776,1.9712 C99.4234,1.1077 85.4198,2.1368 81.5528,1.3634 C81.0989,1.2726 75.589,0.9955 75.5251,1.0595 C75.5084,1.0762 77.301,2.2972 78.6149,3.0856 C80.4582,4.1915 81.9015,6.0176 83.4269,7.543 C84.8964,9.0125 87.0547,10.0798 88.7961,11.2407" id="Fill-84" fill-opacity="0.5143" fill="#FFC793"></path>
                <path d="M75.981,1.3634 C79.086,2.9995 81.1526,6.3296 84.3387,7.7457 C85.1443,8.1037 88.6442,10.1981 88.6442,11.2914 C88.6442,12.4508 86.3732,21.1433 85.9089,22.5363 C85.5293,23.6753 85.4024,25.1305 85.4024,26.3353 C85.4024,26.6734 85.7912,27.3483 85.4531,27.3483 C85.3602,27.3483 84.9191,26.6761 84.7439,26.5885 C83.2312,25.8322 81.4789,25.2853 79.9319,24.5118 C77.9099,23.5008 67.0022,19.4707 66.2556,17.9776 C66.0421,17.5505 66.8658,15.9468 67.0661,15.5462 C68.4749,12.7285 72.9022,2.4224 75.7277,1.2115" id="Fill-85" fill-opacity="0.5143" fill="#34C793"></path>
                <path d="M19.3424,42.4759 C13.7791,47.9597 8.5811,53.6762 3.7659,59.8671 C3.3593,60.3899 0.411,63.1383 0.7413,63.799 C0.7903,63.897 2.6863,62.3598 2.8351,62.2854 C3.8749,61.7655 6.962,59.8932 8.0018,59.4311 C13.5486,56.9658 15.9754,54.9033 21.0059,51.5496 C28.7655,46.8292 31.523,44.5492 34.0158,42.9194 C37.9179,40.3682 41.4789,37.7559 45.3537,34.9145 C48.3422,32.7229 50.9334,29.9349 53.9737,27.8067 C55.8,26.5283 65.231,19.6808 66.0719,18.2794 C66.428,17.6858 66.5734,16.5388 66.8281,15.8597 C68.3241,11.8702 70.452,9.2167 72.2723,5.5762 C73.1394,3.8418 75.5893,0.9815 75.4772,0.9815 C67.4179,6.0341 64.7388,7.9772 62.8961,9.2057 C47.0627,21.1563 42.29,23.6966 37.6163,27.2018 C24.2525,39.2178 20.9259,40.4654 19.1912,42.7783" id="Fill-86" fill-opacity="0.5143" fill="#34C7FF"></path>
                <path d="M51.6667,91.3981 C44.6173,91.3043 36.9152,90.7177 29.8896,90.7177 C29.4276,90.7177 23.8404,90.5407 23.8404,90.4152 C23.8404,90.1759 25.6725,88.7715 25.9576,88.6005 C30.1918,86.0599 33.8193,81.9486 37.2997,78.4682 C50.498,65.2699 63.276,51.5845 76.4678,38.3927 C78.3449,36.5156 85.6528,27.4745 85.6528,27.4745 C102.5084,17.6101 113.9278,9.3569 113.9278,9.3569 C113.9278,9.3569 112.587,11.091 111.5171,12.6365 C106.8874,19.3238 104.0345,23.0689 99.1528,29.578 C96.0213,33.7533 92.4106,39.9135 88.9659,43.8503 C85.2125,48.14 82.3297,52.0969 78.8224,56.5631 C68.0146,70.3255 63.2987,75.2217 61.9499,76.9559 C58.4487,81.4574 54.8341,86.6471 51.6667,91.3981" id="Fill-87" fill-opacity="0.5143" fill="#340093"></path>
                <path d="M113.3628,9.7211 C107.7951,9.5607 99.7839,12.3179 94.6212,11.8486 C93.8696,11.7802 89.0411,11.28 88.6442,11.5446 C88.0038,11.9716 86.1687,21.3196 86.0103,22.587 C85.9103,23.3864 84.4381,27.549 85.1492,28.2601 C85.2005,28.3115 90.3636,24.9571 90.8223,24.6131 C93.9179,22.2914 97.409,20.5965 100.6489,18.5347 C105.0403,15.7402 109.0156,12.2921 113.5148,9.7211" id="Fill-89" fill-opacity="0.5143" fill="#34C793"></path>
                <path d="M24.129,90.8181 C25.7498,89.5274 27.7656,88.5196 29.4056,87.0619 C41.6805,76.151 50.2435,67.7443 60.5283,56.118 C62.2161,54.2101 65.864,51.0506 67.683,49.2316 C71.6563,45.2583 74.2116,42.6136 77.5206,38.3208 C78.8898,36.5446 79.9736,34.5263 81.5451,32.9548 C83.0243,31.4756 84.4009,29.9818 85.659,28.3043" id="Stroke-90" stroke="#FFFFFF" stroke-linecap="round" stroke-linejoin="round"></path>
                <path d="M1.5919,64.3458 C7.4401,61.2697 12.7644,57.052 18.4947,53.6138 C20.6307,52.3322 22.9062,51.0505 24.8445,49.4999 C26.7204,47.9992 29.1083,47.1084 30.9259,45.6543 C31.9465,44.8379 33.0001,43.748 34.1455,43.0607 C35.6651,42.149 47.1843,34.1459 48.1,33.402 C53.8237,28.7515 63.8473,20.4142 66.5719,18.7794" id="Stroke-92" stroke="#FFFFFF" stroke-linecap="round" stroke-linejoin="round"></path>
                <path d="M66.5203,18.735 C68.8712,12.9412 71.8889,6.7477 75.8214,1.8321" id="Stroke-93" stroke="#FFFFFF" stroke-linecap="round" stroke-linejoin="round"></path>
                <path d="M86.285,28.036 C95.1764,21.723 104.4279,15.612 113.8304,9.9705" id="Stroke-94" stroke="#FFFFFF" stroke-linecap="round" stroke-linejoin="round"></path>
                <path d="M85.1224,27.4099 C78.5638,25.1348 72.6346,21.971 66.5203,18.9138" id="Stroke-95" stroke="#FFFFFF" stroke-linecap="round" stroke-linejoin="round"></path>
                <path d="M85.4801,27.5888 C86.5335,22.4676 87.9795,16.5231 88.8786,12.0275" id="Stroke-96" stroke="#FFFFFF" stroke-linecap="round" stroke-linejoin="round"></path>
                <path d="M89.0575,11.7591 C96.1585,12.0586 103.1927,11.4135 110.1637,10.4177 C111.3116,10.2537 112.4715,9.7916 113.6516,9.7916" id="Stroke-97" stroke="#FFFFFF" stroke-linecap="round" stroke-linejoin="round"></path>
                <path d="M88.2526,11.0437 C86.2107,9.64 76.0897,2.9552 76.0897,1.2061" id="Stroke-98" stroke="#FFFFFF" stroke-linecap="round" stroke-linejoin="round"></path>
                <path d="M130.7699,69.033 C130.2358,69.567 130.1182,69.5313 130.6804,69.3907" id="Fill-99" fill-opacity="0.5143" fill="#340093"></path>
                <path d="M47.6,61.7041 C49.0933,70.3863 50.7542,78.2614 51.6218,86.937 C51.6687,87.4063 51.5527,91.3981 51.6667,91.3981 C51.7147,91.3981 54.111,87.4463 54.225,87.1803 C56.132,82.7306 59.4263,80.3094 62.6614,76.8047 C66.0474,73.1366 68.5135,68.6884 71.8863,65.0089 C82.3093,53.6383 91.4794,40.9122 100.0148,28.1092 C103.0713,23.5244 106.6353,19.2942 109.8446,14.8011 C111.0795,13.0723 112.989,11.2345 113.9278,9.3569 C114.1804,8.8517 103.4099,2.6721 102.9716,1.7955 L47.6,61.7041 Z" id="Fill-100" fill-opacity="0.5143" fill="#34C7FF"></path>
                <path d="M26.0147,59.7306 C24.4935,52.4493 21.669,40.4662 21.3821,40.3705 C21.0312,40.2536 17.0651,44.6019 16.6203,45.0468 C12.6981,48.969 8.9537,53.2393 5.7319,57.75 C4.8527,58.9808 0.3898,63.7093 0.3898,64.9163 C0.3898,65.1733 4.7752,66.3736 4.9952,66.5066 C8.3141,68.5117 11.0106,67.4054 14.0529,68.7191 C15.7005,69.4306 25.8664,70.2007 27.4667,71.0009 L26.0147,59.7306 Z" id="Fill-101" fill-opacity="0.5143" fill="#34C7FF"></path>
                <path d="M27.4667,71.0009 C30.6216,75.2701 34.6191,78.7193 39.0136,81.6489 C42.8723,84.2214 46.3115,87.3766 49.869,90.2226 C50.1189,90.4226 51.4236,91.4791 51.6667,91.3981 C51.8376,91.3411 51.619,87.2082 51.6218,86.937 C51.6667,82.4786 50.5479,81.3721 50.2147,77.7078 C50.0742,76.1614 48.0691,63.2525 47.7256,62.5654 C45.7848,58.6838 33.6825,50.9432 29.8175,47.5614 C29.1056,46.9384 21.5872,40.7854 21.3129844,40.7854 C21.3104,40.7854 21.6336,42.1373 21.8661,43.0671 C22.3904,45.1642 22.5514,47.4047 23.249,49.4974 C25.5307,56.3427 27.605,64.1721 27.605,71.4157" id="Fill-102" fill-opacity="0.5143" fill="#34C793"></path>
                <path d="M51.6667,91.3981 C47.2428,88.9121 43.3461,84.3567 39.0136,81.6489 C37.2182,80.5268 34.7165,78.7275 33.2127,77.2237 C31.2672,75.2782 28.7569,71.7843 26.3604,70.586 C23.5756,69.1937 12.4356,68.3574 8.7981,67.7512 C6.6627,67.3953 0.437,64.8206 0.2935,64.9163 C-0.059,65.1513 1.8101,68.0187 1.9529,68.3043 C4.0951,72.5886 7.9007,77.5709 11.2872,80.9575 C12.9085,82.5787 21.3339,90.2432 23.0415,90.4301 C25.669,90.7177 34.5193,90.7176 41.1805,90.7177 C44.2568,90.7177 48.5854,91.3981 51.6667,91.3981" id="Fill-103" fill-opacity="0.5143" fill="#340093"></path>
                <path d="M23.0349,41.5552 C27.4573,44.9756 31.4566,48.7574 35.7315,52.3197 C38.1401,54.3269 40.6871,55.6192 42.9078,57.8399 C43.4323,58.3644 44.27,58.4691 44.8399,58.944 C45.5251,59.515 46.4871,61.7041 47.6,61.7041 C48.4926,61.7041 56.2924,53.2877 57.2604,52.3197 C60.3589,49.2212 63.5405,44.4451 66.8281,41.5685 C68.7466,39.8898 77.1319,29.6828 78.8224,27.8067 C95.5831,9.2057 103.4563,2.2802 102.9716,1.7955 C102.5812,1.4051 103.5233,1.8139 102.9716,1.7955 C87.1236,1.2673 77.0621,0.9815 75.4772,0.9815 C75.4554,0.9815 62.3607,9.3008 61.6766,9.8139 C53.3372,16.0684 44.4408,21.7309 36.0075,27.7547 C32.4877,30.2688 23.4184,39.2934 20.5508,40.7272" id="Fill-104" fill-opacity="0.5143" fill="#FFC793"></path>
                <path d="M52.2321,92.4278 C51.59,84.6859 50.1573,75.8061 48.276,68.2809 C47.7711,66.2613 47.967,64.094 47.4711,62.11" id="Stroke-105" stroke="#FFFFFF" stroke-linecap="round" stroke-linejoin="round"></path>
                <path d="M47.0239,61.7523 C46.3574,60.9867 45.571,60.0355 44.6986,59.3376 C41.4561,56.7436 37.8949,54.6638 34.6821,52.0935 C32.4979,50.3461 31.6424,49.3797 29.7495,47.2641 C28.2291,45.5649 24.3404,43.7762 21.7143,41.6298" id="Stroke-106" stroke="#FFFFFF" stroke-linecap="round" stroke-linejoin="round"></path>
                <path d="M21.7143,42.6136 C23.5813,49.5089 25.4752,56.5131 26.3648,63.6304 C26.7128,66.4139 27.8852,69.0209 27.8852,71.8582" id="Stroke-107" stroke="#FFFFFF" stroke-linecap="round" stroke-linejoin="round"></path>
                <path d="M1.6813,65.9556 C7.8691,69.6041 22.7437,68.8269 27.7958,71.8582" id="Stroke-108" stroke="#FFFFFF" stroke-linecap="round" stroke-linejoin="round"></path>
                <path d="M28.105,71.9157 C35.6465,77.5167 44.3422,87.3012 52.0321,92.4278" id="Stroke-109" stroke="#FFFFFF" stroke-linecap="round" stroke-linejoin="round"></path>
                <path d="M47.9182,62.0206 C49.9561,59.7856 52.6763,57.9719 54.5363,55.4919 C62.7341,44.5615 73.1296,35.4699 81.7239,24.7269 C84.2421,21.5793 90.2512,16.9969 92.7242,13.9056 C95.3859,10.5784 101.8573,5.2437 103.3776,2.4712" id="Stroke-110" stroke="#FFFFFF" stroke-linecap="round" stroke-linejoin="round"></path>
            </g>
            <g id="2" transform="translate(0.000000, 214.000000)">
                <path d="M4.0537,3.6849 C4.0713,5.1165 2.9628,10.1107 2.7759,11.5445 C2.4796,13.8167 0.9285,25.2704 0.9018,26.5563 C0.8915,27.0524 9.4477,35.0687 11.0146,36.3189 C15.1323,40.4475 18.3644,42.2905 18.3644,42.0402 C18.3644,42.0402 19.3543,32.6414 19.3413,31.5812 C19.3291,30.5875 20.3229,24.2593 20.1234,23.9871 C19.9962,23.8135 14.8459,18.1211 13.4815,16.4945 C11.7172,14.3912 5.9305,5.2893 4.2412,4.1927" id="Fill-111" fill-opacity="0.5143" fill="#340093"></path>
                <path d="M4.1775,4.7156 C7.2762,7.4935 16.8318,19.0846 20.1234,23.9871 C20.1234,23.9871 22.4832,23.6704 23.4704,23.3627 C37.904,18.6895 41.3297,18.1246 44.4765,17.6357 C45.2626,17.5136 56.2448,15.2065 56.2605,15.1576 C56.4254,14.642 54.375,13.9813 54.0551,13.7261 C51.3738,11.5866 48.6113,9.4405 45.6212,7.7579 C37.49,2.5206 35.2073,0.9132 34.4245,0.7666 C33.2302,0.5429 31.5343,0.9619 30.2709,1.0363 C20.4811,1.6128 13.5096,2.8868 4.2412,4.1927" id="Fill-112" fill-opacity="0.5143" fill="#FFC793"></path>
                <path d="M56.2605,15.1576 C55.6847,19.6986 54.1141,26.3719 53.3036,30.6994 C51.9685,35.3491 51.9031,37.9337 51.2243,38.6293 C50.8653,38.9972 49.8847,39.0194 49.4077,39.162 C42.958,41.0905 36.6366,41.5063 29.8926,41.589 C29.1751,41.5978 18.0848,42.1295 17.9378,42.0272 C18.2014,38.4734 19.0969,34.4674 19.1529,33.8057 C19.3413,31.5812 20.5909,24.2842 21.1106,23.9871 C21.6773,23.6631 20.5116,23.7165 21.1388,23.5371 C25.3239,22.3405 29.336,21.2694 33.6254,20.2609 C38.9232,19.0153 44.2617,17.6896 49.5639,16.3974 C50.1008,16.2665 56.0597,14.7046 56.2605,15.1576" id="Fill-113" fill-opacity="0.5143" fill="#34C7FF"></path>
                <path d="M20.9811,24.4871 C32.9161,21.0581 45.6311,18.0027 57.7451,15.5799" id="Stroke-115" stroke="#FFFFFF" stroke-linecap="round" stroke-linejoin="round"></path>
                <path d="M20.9811,25.0495 C20.8526,29.6246 19.4991,33.9981 19.0872,38.5296 C18.9667,39.855 19.1937,41.2229 18.8644,42.5402" id="Stroke-116" stroke="#FFFFFF" stroke-linecap="round" stroke-linejoin="round"></path>
                <path d="M20.5354,23.9354 C14.8231,18.164 9.8924,9.9502 4.2701,4.3279" id="Stroke-117" stroke="#FFFFFF" stroke-linecap="round" stroke-linejoin="round"></path>
                <path d="M4.5642,3.6119 C8.4515,3.0913 12.345,2.6787 16.2318,2.1535 C21.6025,1.4277 27.0843,1.6032 32.4207,0.8409 C32.624,0.8118 35.3298,0.4368 35.1917,0.695 C34.9788,1.0932 34.621,5.2647 34.4926,6.1261 C33.1592,15.0754 32.6393,18.5556 32.6393,23.4354 C32.6393,24.2286 31.9716,27.3709 31.748,28.6105 C31.6505,29.1512 18.9808,27.6749 16.9611,27.5306 C15.7386,27.4433 1.203,26.8393 1.0639,26.8014 C0.8232,26.7357 0.9554,22.4935 1.0639,21.8426 C2.0712,15.7986 2.8611,9.6479 4.0537,3.6849" id="Fill-118" fill-opacity="0.5143" fill="#34C793"></path>
                <path d="M31.465,28.6105 C32.5695,29.1232 35.6108,30.3178 36.7231,30.8122 C39.9613,32.2514 43.0819,34.101 46.276,35.698 C46.6869,35.9034 51.9751,38.5926 51.964,38.6149 C51.8657,38.8114 41.1214,41.1144 40.2234,41.1672 C37.5511,41.3244 34.9455,41.8122 32.2748,41.9693 C29.3881,42.1391 26.4757,41.7271 23.597,41.8964 C22.1902,41.9792 19.3638,42.7702 18.0549,42.3339 C15.1841,41.377 4.362,29.9537 1.2827,26.8743 L31.465,28.6105 Z" id="Fill-119" fill-opacity="0.5143" fill="#340093"></path>
                <path d="M31.7643,29.062 C36.9291,31.7085 42.2668,34.2923 47.5886,36.573 C48.0746,36.7813 51.5302,39.0202 51.6977,38.5179 C52.7645,35.3173 53.7711,26.9118 54.3704,24.3949 C54.5739,23.5401 56.8046,15.7317 56.5581,15.4983 C54.3487,13.4067 47.3564,9.1938 44.6717,7.4039 C43.6542,6.7256 36.0973,1.2456 34.9788,1.0932 C34.6967,1.0548 34.0283,8.5961 33.952,9.6645 C33.6043,14.5331 32.2029,23.9871 31.748,28.6105" id="Fill-120" fill-opacity="0.5143" fill="#FFC793"></path>
                <path d="M1.7827,27.3743 C11.5454,27.6764 22.4706,29.1105 32.248,29.1105" id="Stroke-121" stroke="#FFFFFF" stroke-linecap="round" stroke-linejoin="round"></path>
                <path d="M32.248,29.1105 C38.3982,31.7559 46.4958,36.1308 52.464,39.1149" id="Stroke-122" stroke="#FFFFFF" stroke-linecap="round" stroke-linejoin="round"></path>
                <path d="M32.248,29.1105 C33.1393,19.8395 34.245,11.6826 35.4788,1.5932" id="Stroke-123" stroke="#FFFFFF" stroke-linecap="round" stroke-linejoin="round"></path>
            </g>
            <g id="1" transform="translate(421.000000, 61.000000)">
                <path d="M0.7277,52.4731 C2.3943,56.6852 11.4551,66.588 11.4551,66.588 C19.0593,86.3286 23.6966,95.6083 23.7633,95.6083 C24.0356,95.6083 22.2903,93.7052 22.1824,93.5758 C20.9106,92.0496 18.1531,88.4764 16.7623,87.0265 C10.9085,81.7808 9.2177,79.4185 8.8579,78.5575 C7.0512,74.2332 4.567,66.7083 3.3249,61.2808 C2.9202,59.5123 0.9535,53.0517 0.9535,51.231" id="Fill-124" fill-opacity="0.5143" fill="#340093"></path>
                <path d="M11.4551,66.588 C14.0522,72.5728 16.9881,84.4293 20.3757,89.3978 C20.6553,89.8078 24.2104,96.2136 24.4409,96.06 C24.9155,95.7436 27.2638,90.414 27.2638,90.414 C27.2638,90.414 32.3452,80.59 32.3452,80.59 C32.3452,80.59 34.0844,65.0755 34.6076,58.7966 C34.7132,57.5297 35.4413,46.6485 34.3778,45.585 C33.7467,44.9539 27.4303,50.5617 26.8122,51.118 C11.7281,66.6954 13.5309,63.4744 11.4551,66.588" id="Fill-125" fill-opacity="0.5143" fill="#34C7FF"></path>
                <path d="M0.6148,51.7956 C1.2084,52.8622 7.7944,62.3864 9.1967,63.0875 C10.5166,63.7475 10.63,67.4131 11.4551,66.588 C17.4374,60.6057 19.4415,57.468 25.7959,52.0214 C27.9291,50.193 30.1078,48.8769 32.3452,47.2788 C32.5476,47.1342 34.7134,46.708 34.6036,46.4884 C34.0832,45.4475 30.1162,42.6012 29.0705,41.7457 C26.8422,39.9225 24.6626,38.0161 22.4083,36.2127 C20.2642,34.4974 17.8179,33.1988 15.746,31.3571 C15.4232,31.0701 11.7378,27.6306 11.4551,27.7437 C10.7477,28.0267 10.6495,30.6296 10.213,31.3571 C8.5424,34.1414 6.3625,37.2006 5.1316,40.2778 C4.3119,42.3271 3.6108,44.8897 2.5344,46.8271 C1.8243,48.1053 1.0661,50.6676 0.7277,51.6827" id="Fill-126" fill-opacity="0.5143" fill="#34C793"></path>
                <path d="M73.335,59.9258 C83.4347,47.8723 85.2062,43.9206 85.0786,43.6653 C75.8697,50.2109 70.226,53.4255 65.6564,56.6511 C57.5098,62.4016 50.5323,69.5999 41.7175,74.2665 C39.0464,75.6806 32.3452,80.59 32.3452,80.59 C32.3452,80.59 27.0923,90.7572 25.7959,93.35 C25.5849,93.772 24.1332,95.9274 24.215,96.1729 C24.5822,97.2746 28.4848,94.7944 28.9576,94.4791 C33.6605,91.3439 41.9575,87.0123 45.6697,83.3001 C47.6843,81.2855 50.2039,79.7716 52.332,77.88 C54.8664,75.6271 57.0803,73.2459 59.7846,71.2177 C64.5982,67.6076 69.0821,64.1786 73.335,59.9258" id="Fill-127" fill-opacity="0.5143" fill="#34C793"></path>
                <path d="M50.5316,1.5134 C60.0438,6.6462 72.8985,7.9241 81.8407,13.8855 C82.3278,14.2103 88.1133,16.5835 88.153,16.663 C88.5,17.357 87.0947,17.8628 86.3856,18.1779 C81.7928,20.2192 77.1453,22.7367 72.751,25.2477 C70.1943,26.7087 67.8387,28.8026 65.1762,30.0451 C59.2567,32.8075 53.3703,36.0177 47.7542,39.3873 C46.4032,40.1979 35.788,47.2146 35.1295,47.2146 C32.8855,47.2146 22.9414,38.3089 20.9899,36.3574 C18.5787,33.9462 12.3653,30.5102 10.6377,28.7826 C9.7896,27.9346 15.8927,25.3635 16.445,24.9952 C16.7607,24.7848 17.3568,24.0133 17.7075,23.7328 C19.6389,22.1877 22.2351,20.4652 24.0198,18.9354 C26.001,17.2373 27.0542,15.0366 30.0797,12.8756 C32.7952,10.9359 35.9033,9.6664 38.6644,7.8257 C38.8625,7.6937 39.0011,7.4891 39.1694,7.3207 C39.5902,6.9841 39.9749,6.5964 40.4319,6.3108 C42.8786,4.7816 45.6765,3.766 48.0066,2.0184 C48.9058,1.344 50.2827,1.2591 51.2891,0.7559" id="Fill-128" fill-opacity="0.5143" fill="#FFC793"></path>
                <path d="M35.1295,47.2146 C34.419,51.7135 35.0128,57.0187 34.2648,61.5066 C33.6686,65.0839 33.9298,70.7325 33.4744,74.8311 C33.2638,76.7266 32.481,78.4431 32.1194,80.2513 C32.0302,80.6973 31.1136,81.3831 31.5548,81.4934 C31.6883,81.5268 39.2656,77.4621 39.7979,77.0895 C41.5427,75.8681 43.0896,74.2762 44.8793,73.1373 C48.9036,70.5764 53.2905,67.8877 56.9617,64.7813 C59.584,62.5624 62.1405,60.3099 64.9789,58.3449 C69.3559,55.3147 82.5083,48.6267 85.0786,44.3428 C85.4628,43.7025 85.9058,38.3006 86.0949,37.2289 C87.0544,31.7916 87.5628,26.2504 87.5628,20.7427 C87.5628,19.8243 87.4967,18.815 87.6758,17.9197 C87.7007,17.7951 88.2516,17.0991 88.1274,17.0163 C87.9433,16.8935 87.0349,17.4071 86.8853,17.468 C83.8365,18.7101 83.1442,18.9228 80.5782,20.5168 C77.8518,22.2106 73.3623,24.814 71.3024,26.0499 C69.3355,27.23 66.3562,28.6003 63.9627,29.8892 C61.9883,30.9523 60.4883,31.5771 58.5425,32.7122 C53.7408,35.5132 36.7992,43.7596 34.1519,47.7304" id="Fill-129" fill-opacity="0.5143" fill="#34C7FF"></path>
                <path d="M12.0917,67.5927 C16.387,77.1404 19.1118,87.7482 24.9254,96.4686" id="Stroke-130" stroke="#FFFFFF" stroke-linecap="round" stroke-linejoin="round"></path>
                <path d="M11.7709,66.8708 C7.0755,62.6997 4.1694,57.3567 1.0226,52.112" id="Stroke-131" stroke="#FFFFFF" stroke-linecap="round" stroke-linejoin="round"></path>
                <path d="M34.1496,46.7379 C27.0912,41.1819 19.5989,32.043 11.6104,28.0488" id="Stroke-132" stroke="#FFFFFF" stroke-linecap="round" stroke-linejoin="round"></path>
                <path d="M33.909,47.2994 C27.8486,51.9131 21.9944,57.0591 17.2251,63.0207 C16.0017,64.55 14.1079,65.5764 12.7333,66.951" id="Stroke-133" stroke="#FFFFFF" stroke-linecap="round" stroke-linejoin="round"></path>
                <path d="M34.9517,47.7004 C35.2616,55.9824 34.757,64.315 34.0694,72.5658 C33.981,73.6273 34.1859,79.6027 33.7486,80.1858 C33.4932,80.5264 26.5625,95.0551 25.8879,96.6291" id="Stroke-134" stroke="#FFFFFF" stroke-linecap="round" stroke-linejoin="round"></path>
                <path d="M87.8107,18.0224 C74.2135,25.5552 60.1323,32.3675 46.7428,40.4012 C42.9585,42.6718 39.0635,45.501 34.8716,46.8983" id="Stroke-135" stroke="#FFFFFF" stroke-linecap="round" stroke-linejoin="round"></path>
                <path d="M86.1217,44.1653 C83.9218,46.0211 81.5168,47.5789 79.2236,49.2988 C74.756,52.6496 68.8598,56.0559 64.144,59.4856 C61.4809,61.4224 59.0203,63.6825 56.5239,65.8223 C51.0809,70.4877 39.3379,77.8437 32.8452,81.09" id="Stroke-136" stroke="#FFFFFF" stroke-linecap="round" stroke-linejoin="round"></path>
                <path d="M72.5446,31.5829 C73.262,34.7261 73.2479,37.9807 73.4479,41.1811 C73.6053,43.6998 73.7318,46.2297 73.8996,48.7467 C73.967,49.7571 74.5009,58.6723 73.8996,59.4741 C73.6359,59.8257 70.4751,58.6948 70.0603,58.4578 C67.9547,57.2545 56.1955,53.0619 56.1712,53.0377 C55.0629,51.9293 50.1674,37.9622 49.396,35.6481 C49.0566,34.6297 45.9506,28.1788 46.3472,27.5178 C46.7974,26.7675 50.3921,27.5435 51.0898,27.6308 C53.9947,27.9939 56.99,27.8319 59.8976,28.1954 C63.6928,28.6698 69.1777,29.7762 72.8833,29.7762" id="Fill-139" fill-opacity="0.5143" fill="#34C793"></path>
                <path d="M47.8151,28.3083 C54.7851,28.5575 61.6193,29.8892 68.5923,29.8892 C69.47,29.8892 71.6061,30.6407 72.4316,30.2279 C74.7745,29.0565 78.7484,24.8458 80.9006,23.0011 C81.7295,22.2906 87.4107,17.1387 87.4499,16.9034 C87.5467,16.3227 84.8162,15.6134 84.4011,15.4354 C81.6631,14.262 78.5516,13.714 75.8192,12.4995 C74.7076,12.0055 73.6534,11.281 72.5445,10.8057 C69.8095,9.6336 67.1687,8.0778 64.4143,6.8536 C60.8174,5.2549 56.7748,4.4663 53.3482,2.5626 C52.9616,2.3478 50.9705,1.0979 50.5252,1.3205 C50.0528,1.5567 50.3041,5.7009 50.1865,6.289 C49.8376,8.0335 49.9863,9.9484 49.7348,11.7091 C48.9654,17.0946 47.1376,22.4742 47.1376,27.8566" id="Fill-140" fill-opacity="0.5143" fill="#FFC793"></path>
                <path d="M87.1111,17.3551 C85.7084,18.0565 87.1163,17.2371 85.4173,18.936 C84.348,20.0053 82.5185,20.6207 81.2393,21.4202 C79.4272,22.5528 75.5578,27.8328 74.0125,28.76 C73.5171,29.0572 72.8795,28.9896 72.4316,29.4375 C72.0718,29.7973 72.5445,32.0039 72.5445,32.4863 C72.5445,38.8478 73.8996,45.1202 73.8996,51.4568 C73.8996,52.1157 73.5546,58.8499 73.6737,58.9095 C73.6828,58.914 75.3768,56.0509 75.5934,55.7477 C76.8398,54.0027 78.5439,52.4548 79.8843,50.7793 C81.1456,49.2026 84.8431,46.3995 85.5303,44.6816 C87.2598,40.3577 87.6757,21.7694 87.6757,16.113" id="Fill-141" fill-opacity="0.5143" fill="#34C793"></path>
                <path d="M49.396,2.111 C43.5319,5.6255 37.3722,8.9974 32.0064,13.29 C28.4084,16.1684 25.195,19.4675 21.2791,21.9848 C19.4948,23.1319 12.9004,26.5243 11.7938,27.6308 C10.4058,29.0188 6.6299,38.2975 5.4704,40.6165 C4.6656,42.226 0.2761,50.7095 0.2761,52.0214 C0.2761,52.2096 0.5515,51.7487 0.7277,51.6827 C1.5633,51.3693 2.3067,50.9496 3.0991,50.5535 C5.5602,49.3229 8.0538,48.1233 10.5517,46.94 C13.2005,45.6854 15.7133,44.1297 18.2303,42.6491 C20.3877,41.38 22.8169,40.5903 25.0054,39.3744 C27.3298,38.0831 29.7237,36.8958 32.1194,35.761 C34.6531,34.5608 36.9021,32.7453 39.4591,31.583 C40.9865,30.8887 44.9321,29.8363 46.0085,28.76 C48.4324,26.336 48.2167,14.3433 48.4927,11.0316 C48.7473,7.9758 49.7348,4.9201 49.7348,1.8851" id="Fill-142" fill-opacity="0.5143" fill="#34C7FF"></path>
                <path d="M0.8406,52.6989 C2.9438,59.6248 5.1748,66.4222 6.9383,73.4761 C7.166,74.3869 7.9787,78.2644 8.8579,78.5575 C9.7638,78.8594 13.273,75.7289 14.1651,75.2828 C17.9763,73.3772 22.1821,72.1571 26.1346,70.5402 C32.916,67.766 38.1332,63.4522 44.2017,60.0387 C45.5101,59.3027 55.0782,53.7798 55.7195,52.9247 C56.071,52.4561 55.3158,50.9825 55.1549,50.5534 C53.338,45.7083 51.8267,40.8064 49.7348,36.0997 C48.6767,33.7191 48.2277,30.4516 46.7989,28.3083 C46.6133,28.0299 46.2667,28.3381 46.1214,28.4212 C45.0367,29.041 44.1608,30.0862 42.9596,30.5667 C41.0598,31.3266 38.9891,31.8031 37.2007,32.8251 C34.3493,34.4544 27.45,39.1551 25.1183,40.0519 C21.9074,41.2869 18.2478,42.4709 15.1814,44.0041 C12.0812,45.5542 9.0178,47.0859 5.922,48.6338 C4.0739,49.5579 2.5009,51.0411 0.6148,51.7956" id="Fill-143" fill-opacity="0.5143" fill="#34C793"></path>
                <path d="M9.8742,79.235 C13.7632,84.0339 18.0577,88.4717 21.9566,93.237 C22.5099,93.9133 23.9776,96.6246 24.8925,96.6246 C26.4419,96.6246 31.923,93.1515 33.3615,92.2207 C40.4775,87.6163 47.0898,82.1015 53.3482,76.412 C58.0883,72.1029 63.3614,68.2433 68.2536,64.1038 C68.9368,63.5257 73.1306,60.6625 73.335,60.1516 C73.5581,59.5938 66.4284,56.9942 65.6564,56.6511 C64.7821,56.2625 56.2654,52.4958 55.7195,52.9248 C54.1387,54.1669 50.4806,56.3398 47.5893,58.119 C41.3094,61.9836 35.031,65.6403 28.393,68.9593 C25.9589,70.1764 23.5962,71.9334 21.0532,72.9115 C17.0612,74.4469 12.6954,75.2559 9.1967,77.88" id="Fill-144" fill-opacity="0.5143" fill="#340093"></path>
                <path d="M1.0226,52.1121 C4.3855,50.1847 7.5899,48.6556 10.3815,47.2598 C11.5108,46.6951 12.9036,46.5528 13.9982,45.9273 C19.5051,42.7805 25.1754,40.0056 30.8442,37.1712 C34.034,35.5763 36.5906,33.6734 39.981,32.3173 C42.4499,31.3297 44.7594,28.8384 47.2143,28.2247" id="Stroke-145" stroke="#FFFFFF" stroke-linecap="round" stroke-linejoin="round"></path>
                <path d="M9.6967,79.4551 C13.3019,76.4803 17.9042,75.149 22.0694,73.3639 C24.0945,72.496 26.3081,71.3461 28.2558,70.3183 C34.1496,67.2083 36.4133,66.4799 37.9637,65.274 C39.4001,64.1568 42.148,62.2133 43.8832,61.3457 C48.0709,59.2518 52.5267,55.6099 56.6712,53.5377" id="Stroke-146" stroke="#FFFFFF" stroke-linecap="round" stroke-linejoin="round"></path>
                <path d="M57.4932,53.2558 C62.6867,56.572 69.5396,56.0838 74.7199,59.5373" id="Stroke-147" stroke="#FFFFFF" stroke-linecap="round" stroke-linejoin="round"></path>
                <path d="M47.8805,28.5102 C48.3308,33.1333 51.4087,37.8575 52.8297,42.1203 C54.1319,46.0269 55.4862,50.0377 57.5884,53.5413" id="Stroke-148" stroke="#FFFFFF" stroke-linecap="round" stroke-linejoin="round"></path>
                <path d="M73.5778,31.1751 C73.5516,40.3797 75.1006,49.4266 75.1006,58.5856" id="Stroke-149" stroke="#FFFFFF" stroke-linecap="round" stroke-linejoin="round"></path>
                <path d="M48.2613,28.2247 C49.4623,28.2794 50.6998,28.1236 51.8779,28.3199 C53.7731,28.6358 55.7386,29.1899 57.5884,29.6524 C58.814,29.9588 71.5884,30.5089 73.3875,30.5089" id="Stroke-151" stroke="#FFFFFF" stroke-linecap="round" stroke-linejoin="round"></path>
                <path d="M51.2116,2.2419 C50.401,3.878 51.0669,5.7713 50.6406,7.4765 C48.751,15.0349 50.3714,22.6 48.5468,28.9861" id="Stroke-152" stroke="#FFFFFF" stroke-linecap="round" stroke-linejoin="round"></path>
                <path d="M87.6637,18.5168 C82.4622,22.085 78.5463,27.26 73.3875,30.6993" id="Stroke-153" stroke="#FFFFFF" stroke-linecap="round" stroke-linejoin="round"></path>
            </g>
        </g>
    </g>
</svg>