<?xml version="1.0" encoding="UTF-8"?>
<svg width="597px" height="50px" viewBox="0 0 597 50" version="1.1" xmlns="http://www.w3.org/2000/svg" xmlns:xlink="http://www.w3.org/1999/xlink">
    <!-- Generator: Sketch 49.3 (51167) - http://www.bohemiancoding.com/sketch -->
    <title>office</title>
    <desc>Created with Sketch.</desc>
    <defs></defs>
    <g id="Page-1" stroke="none" stroke-width="1" fill="none" fill-rule="evenodd">
        <g id="office">
            <path d="M271.876,19.6543 L269.715,19.6543 C270.013,17.7443 270.684,16.1993 271.737,15.0023 C272.81,13.8023 274.012,13.2013 275.373,13.2013 C276.794,13.2013 278.527,14.0063 280.544,15.6083 C280.907,15.8763 281.195,16.0203 281.449,16.0203 C282.105,16.0203 282.552,15.6323 282.8,14.8623 C283.152,13.7573 283.684,13.2013 284.419,13.2013 C284.901,13.2013 285.304,13.3923 285.616,13.7453 C285.915,14.1033 286.083,14.5283 286.083,15.0293 C286.083,15.7293 285.915,16.4523 285.602,17.2103 C285.273,17.9603 284.399,19.5303 282.969,21.9193 C280.907,25.3843 279.855,27.9653 279.855,29.6543 C279.855,30.6453 280.182,31.4603 280.837,32.0883 C281.458,32.7123 282.248,33.0223 283.167,33.0223 C285.045,33.0223 287.057,31.8103 289.198,29.3733 C291.345,26.9343 292.715,24.7763 293.709,21.7753 C294.186,20.3493 296.858,17.2273 296.858,18.4003 C296.858,20.9703 296.609,23.1123 294.528,26.7163 C292.447,30.3043 289.993,33.0093 287.182,34.8153 C284.375,36.6163 281.449,37.5103 278.443,37.5103 C276.501,37.5103 274.956,37.0033 273.788,35.9823 C272.626,34.9623 272.05,33.5813 272.05,31.8293 C272.05,30.1433 272.497,28.5933 273.406,27.1873 C274.31,25.7573 275.78,24.2813 277.807,22.7143 C280.336,20.7493 281.841,19.1743 282.338,18.0023 C280.867,19.1253 279.501,19.6813 278.25,19.6813 C277.102,19.6813 275.969,19.3193 274.847,18.5813 C274.359,18.2383 273.893,18.0643 273.445,18.0643 C272.69,18.0643 272.169,18.5913 271.876,19.6543" id="Fill-2" fill="#5A00FF"></path>
            <path d="M297.8672,31.728 C297.8672,30.804 298.1792,29.984 298.7702,29.259 C299.3672,28.526 300.2362,28.176 301.3642,28.176 C303.4062,28.176 304.6422,29.48 305.0692,32.116 C305.3632,34.055 306.6802,35.029 309.0732,35.029 C310.3952,35.029 311.4332,34.773 312.1982,34.237 C312.9642,33.71 313.3552,33.042 313.3552,32.249 C313.3552,31.738 313.1472,31.283 312.7202,30.866 C312.3032,30.459 311.2342,29.699 309.5062,28.601 C306.8882,26.969 305.1492,25.593 304.2852,24.48 C303.4062,23.377 302.9782,22.031 302.9782,20.451 C302.9782,18.295 303.9812,16.554 306.0092,15.22 C308.0352,13.876 310.6182,12.911 314.3592,12.911 C317.5092,12.911 320.1072,13.658 321.5562,14.545 C322.9982,15.432 323.7042,16.544 323.7042,17.86 C323.7042,18.802 323.3552,19.567 322.6652,20.166 C321.9652,20.767 321.1792,21.058 320.3152,21.058 C318.4372,21.058 317.3402,20.026 317.0072,17.975 C316.7542,16.393 315.6212,15.608 313.6292,15.608 C312.4372,15.608 311.5482,15.829 310.9412,16.264 C310.3362,16.708 310.0382,17.371 310.0382,18.238 C310.0382,18.78 310.2362,19.247 310.6482,19.666 C311.0652,20.079 312.0392,20.729 313.5692,21.624 C316.3022,23.213 318.0852,24.661 318.9342,25.951 C319.7742,27.257 320.1862,28.526 320.1862,29.783 C320.1862,32.016 319.1342,33.857 317.0322,35.317 C314.9262,36.788 311.9602,37.51 308.1252,37.51 C305.0502,37.51 302.5762,37.028 300.6982,36.055 C298.8052,35.076 297.8672,33.648 297.8672,31.728" id="Fill-4" fill="#5A00FF"></path>
            <path d="M293.5049,16.5664 C291.7809,16.3974 291.8809,15.2204 293.8139,15.4514 C294.3049,15.5084 294.5929,15.8414 294.7179,16.3334 C294.2849,16.5044 293.8679,16.5994 293.5049,16.5664 M326.2869,13.0374 C325.8589,7.9254 321.5129,4.0054 317.0169,3.4094 C310.2009,2.5124 304.0119,7.6424 301.2259,10.5254 C300.0129,11.8974 299.1519,12.5174 297.8269,13.9614 C297.5239,14.2964 297.1869,14.6314 296.7989,14.9574 C296.4759,14.3834 295.9989,13.9014 295.3139,13.5614 C293.3709,12.5874 291.5279,13.6064 291.0359,15.1334 C290.6499,16.3974 290.8769,17.5704 291.9549,18.2824 C292.5809,18.6904 293.5049,18.8794 294.6329,18.6154 C294.3249,20.1484 293.6939,21.9194 293.2069,23.1444 C291.7069,26.9014 294.6119,27.5474 296.0189,23.6254 C296.7989,21.4304 297.4799,19.0854 297.3849,17.1604 C297.8819,16.7704 298.4019,16.2834 298.9199,15.7104 C304.6379,9.4534 308.7509,4.0784 316.3369,4.0384 C320.4599,4.0134 324.9259,8.2904 324.5089,12.6894 C324.1599,16.3084 322.4319,17.8434 320.9769,17.6844 C319.5259,17.5184 318.0109,17.8364 317.3559,17.9074 C318.5269,24.5124 326.8179,19.7364 326.2869,13.0374" id="Fill-6" fill="#5A00FF"></path>
            <path d="M44.6592,25.3867 L44.6592,25.2507 C44.6592,13.5607 36.1752,3.9637 24.5102,3.9637 C12.8612,3.9637 4.5062,13.4247 4.5062,25.1137 L4.5062,25.2507 C4.5062,36.9387 12.9952,46.5317 24.6442,46.5317 C36.3082,46.5317 44.6592,37.0737 44.6592,25.3867 M0.8642,25.3867 L0.8642,25.2507 C0.8642,12.3447 10.3622,0.7917 24.6442,0.7917 C38.9312,0.7917 48.2852,12.2097 48.2852,25.1137 C48.3702,25.1807 48.3702,25.1807 48.2852,25.2507 C48.2852,38.1537 38.7922,49.7057 24.5102,49.7057 C10.2282,49.7057 0.8642,38.2897 0.8642,25.3867" id="Fill-8" fill="#FFFFFF"></path>
            <polygon id="Fill-10" fill="#FFFFFF" points="60.7344 1.6011 93.9534 1.6011 93.9534 4.8481 64.2414 4.8481 64.2414 24.2371 90.9184 24.2371 90.9184 27.4801 64.2414 27.4801 64.2414 48.8961 60.7344 48.8961"></polygon>
            <polygon id="Fill-12" fill="#FFFFFF" points="106.998 1.6011 140.207 1.6011 140.207 4.8481 110.501 4.8481 110.501 24.2371 137.182 24.2371 137.182 27.4801 110.501 27.4801 110.501 48.8961 106.998 48.8961"></polygon>
            <polygon id="Fill-14" fill="#FFFFFF" points="153.675 48.897 157.177 48.897 157.177 1.602 153.675 1.602"></polygon>
            <path d="M171.1709,25.3867 L171.1709,25.2507 C171.1709,11.8697 181.1419,0.7917 194.7579,0.7917 C203.1829,0.7917 208.2349,3.8967 213.0779,8.3577 L210.5849,10.9267 C206.4859,6.9397 201.7619,3.9637 194.6829,3.9637 C183.3659,3.9637 174.8169,13.2207 174.8169,25.1137 L174.8169,25.2507 C174.8169,37.2097 183.5059,46.5317 194.7579,46.5317 C201.5639,46.5317 206.2079,43.8967 210.9919,39.1667 L213.3519,41.4647 C208.3589,46.3977 202.9749,49.7057 194.6229,49.7057 C181.1419,49.7057 171.1709,38.9637 171.1709,25.3867" id="Fill-16" fill="#FFFFFF"></path>
            <polygon id="Fill-17" fill="#FFFFFF" points="225.1104 1.6011 258.6674 1.6011 258.6674 4.8481 228.6224 4.8481 228.6224 23.4251 255.6414 23.4251 255.6414 26.6661 228.6224 26.6661 228.6224 45.6521 259.0044 45.6521 259.0044 48.8961 225.1104 48.8961"></polygon>
            <path d="M381.6719,25.3794 L381.6719,25.2454 C381.6719,13.5514 373.1819,3.9584 361.5229,3.9584 C349.8729,3.9584 341.5179,13.4204 341.5179,25.1084 L341.5179,25.2454 C341.5179,36.9344 350.0079,46.5244 361.6519,46.5244 C373.3209,46.5244 381.6719,37.0684 381.6719,25.3794 M337.8759,25.3794 L337.8759,25.2454 C337.8759,12.3394 347.3749,0.7844 361.6519,0.7844 C375.9429,0.7844 385.3029,12.2054 385.3029,25.1084 C385.3829,25.1724 385.3829,25.1724 385.3029,25.2454 C385.3029,38.1464 375.8049,49.7014 361.5229,49.7014 C347.2339,49.7014 337.8759,38.2854 337.8759,25.3794" id="Fill-18" fill="#FFFFFF"></path>
            <polygon id="Fill-19" fill="#FFFFFF" points="397.8809 1.5967 431.0899 1.5967 431.0899 4.8407 401.3779 4.8407 401.3779 24.2317 428.0649 24.2317 428.0649 27.4757 401.3779 27.4757 401.3779 48.8907 397.8809 48.8907"></polygon>
            <polygon id="Fill-20" fill="#FFFFFF" points="444.1455 1.5967 477.3645 1.5967 477.3645 4.8407 447.6475 4.8407 447.6475 24.2317 474.3295 24.2317 474.3295 27.4757 447.6475 27.4757 447.6475 48.8907 444.1455 48.8907"></polygon>
            <polygon id="Fill-21" fill="#FFFFFF" points="490.807 48.891 494.325 48.891 494.325 1.597 490.807 1.597"></polygon>
            <path d="M508.3174,25.3794 L508.3174,25.2454 C508.3174,11.8624 518.2884,0.7844 531.9044,0.7844 C540.3294,0.7844 545.3864,3.8894 550.2294,8.3524 L547.7314,10.9214 C543.6324,6.9344 538.9094,3.9584 531.8304,3.9584 C520.5134,3.9584 511.9634,13.2154 511.9634,25.1084 L511.9634,25.2454 C511.9634,37.2024 520.6474,46.5244 531.9044,46.5244 C538.7104,46.5244 543.3594,43.8884 548.1384,39.1624 L550.4984,41.4604 C545.5054,46.3924 540.1164,49.7014 531.7654,49.7014 C518.2884,49.7014 508.3174,38.9584 508.3174,25.3794" id="Fill-22" fill="#FFFFFF"></path>
            <polygon id="Fill-23" fill="#FFFFFF" points="562.2617 1.5967 595.8187 1.5967 595.8187 4.8407 565.7687 4.8407 565.7687 23.4197 592.7877 23.4197 592.7877 26.6607 565.7687 26.6607 565.7687 45.6477 596.1517 45.6477 596.1517 48.8907 562.2617 48.8907"></polygon>
        </g>
    </g>
</svg>